Coordinates
version=1
nRows=4
nColumns=63
inDegrees=yes

Units are S.I. units (second, meters, Newtons, ...)
If the header above contains a line with 'inDegrees', this indicates whether rotational values are in degrees (yes) or radians (no).

endheader
time	pelvis_tilt	pelvis_list	pelvis_rotation	pelvis_tx	pelvis_ty	pelvis_tz	hip_flexion_r	hip_adduction_r	hip_rotation_r	knee_angle_r	knee_angle_r_beta	ankle_angle_r	subtalar_angle_r	mtp_angle_r	hip_flexion_l	hip_adduction_l	hip_rotation_l	knee_angle_l	knee_angle_l_beta	ankle_angle_l	subtalar_angle_l	mtp_angle_l	L5_S1_Flex_Ext	L5_S1_Lat_Bending	L5_S1_axial_rotation	L4_L5_Flex_Ext	L4_L5_Lat_Bending	L4_L5_axial_rotation	L3_L4_Flex_Ext	L3_L4_Lat_Bending	L3_L4_axial_rotation	L2_L3_Flex_Ext	L2_L3_Lat_Bending	L2_L3_axial_rotation	L1_L2_Flex_Ext	L1_L2_Lat_Bending	L1_L2_axial_rotation	L1_T12_Flex_Ext	L1_T12_Lat_Bending	L1_T12_axial_rotation	Abs_r3	Abs_r2	Abs_r1	Abs_t1	Abs_t2	neck_flexion	neck_bending	neck_rotation	arm_flex_r	arm_add_r	arm_rot_r	elbow_flex_r	pro_sup_r	wrist_flex_r	wrist_dev_r	arm_flex_l	arm_add_l	arm_rot_l	elbow_flex_l	pro_sup_l	wrist_flex_l	wrist_dev_l
      2.44067797	     -5.14911925	    -10.31897066	     77.89501826	      0.28505174	      0.57254246	      0.64496731	      8.26470192	     -0.22121067	     -8.39601166	      2.18298816	      0.03810033	     21.32601747	      7.86589863	      0.00000000	     12.20769458	      0.30562449	     -3.95323579	      8.54705789	      0.14917430	     21.18483114	      9.67929931	      0.00000000	     -0.12191750	      0.14375351	     -0.07337850	     -0.22641299	      0.19119216	     -0.07796466	     -0.20029826	      0.34952228	     -0.07796466	     -0.13933951	      0.34952228	     -0.06420619	     -0.11321259	      0.29314215	     -0.05962003	     -0.06966366	      0.22267418	     -0.05503388	     -0.87084451	      1.62616842	     -0.40810921	      0.00000000	      0.00000000	      5.40411542	      2.81701127	     -4.78541231	      7.31282481	    -10.97867357	     61.18279354	     48.70783384	     25.63006174	     -3.00890572	      8.29587029	     12.42094507	    -11.35395673	     62.99986121	     56.07186888	     78.23851750	    -12.28484364	      7.33625607
      2.45762712	     -5.11043640	    -10.30672339	     77.72655008	      0.28562617	      0.57249666	      0.64439205	      8.18427655	     -0.12144354	     -6.99428871	      2.07418855	      0.03620142	     21.07027130	      6.25942302	      0.00000000	     12.06833447	      0.30127312	     -2.79680880	      8.42504427	      0.14704476	     20.84665428	      7.95784825	      0.00000000	     -0.09451929	      0.13593424	     -0.04688833	     -0.17553177	      0.18079253	     -0.04981885	     -0.15528574	      0.33051050	     -0.04981885	     -0.10802610	      0.33051050	     -0.04102729	     -0.08777061	      0.27719709	     -0.03809677	     -0.05400832	      0.21056213	     -0.03516625	     -0.67514183	      1.53771526	     -0.26077882	      0.00000000	      0.00000000	      5.72577016	      2.65213869	     -4.83004364	      7.14471579	    -10.72294391	     60.61310300	     48.10039325	     31.23394240	     -1.59972699	      9.09541361	     12.45570483	    -11.46843219	     62.58320473	     56.28397531	     82.09772083	    -11.02951910	      8.86199383
      2.47457627	     -5.05995788	    -10.38396354	     77.68774980	      0.28588876	      0.57223143	      0.64386392	      8.26777460	     -0.06813684	     -6.92492794	      2.14792267	      0.03748832	     21.20009506	      6.34426327	      0.00000000	     12.17591718	      0.20065425	     -2.71694921	      8.59468739	      0.15000559	     20.94276533	      7.97247820	      0.00000000	     -0.03473602	      0.12681442	     -0.02754221	     -0.06450826	      0.16866318	     -0.02926360	     -0.05706780	      0.30833658	     -0.02926360	     -0.03969979	      0.30833658	     -0.02409944	     -0.03225586	      0.25859996	     -0.02237805	     -0.01984816	      0.19643553	     -0.02065666	     -0.24811589	      1.43455007	     -0.15318152	      0.00000000	      0.00000000	      5.89779740	      2.49150169	     -4.62539778	      7.01092105	    -10.68863317	     60.91172222	     48.06906834	     31.59282637	     -1.64815434	      9.14549025	     12.48276761	    -11.51987543	     62.85658626	     56.23443764	     81.87520964	    -10.81033795	      8.88703960
      2.49152542	     -4.97183328	    -10.01471834	     77.53280613	      0.28677022	      0.57278857	      0.64397631	      7.98215790	     -0.02366497	     -6.69400642	      2.32765477	      0.04062524	     21.26529815	      6.32020338	      0.00000000	     11.66583116	      0.12721124	     -2.80040930	      8.37309750	      0.14613812	     20.91365151	      8.08875146	      0.00000000	     -0.02759699	      0.10542735	     -0.00807104	     -0.05125038	      0.14021837	     -0.00857548	     -0.04533910	      0.25633605	     -0.00857548	     -0.03154060	      0.25633605	     -0.00706216	     -0.02562657	      0.21498745	     -0.00655772	     -0.01576892	      0.16330696	     -0.00605328	     -0.19712257	      1.19261524	     -0.04488870	      0.00000000	      0.00000000	      5.14782821	      1.67162507	     -3.47271895	      7.62844865	    -10.44903971	     62.26874458	     47.46542628	     31.84339806	     -1.54025865	      9.70060825	     13.22357134	    -11.73849582	     64.23315011	     56.09933867	     81.83496345	    -10.34876807	      9.57317457
